<mxfile host="app.diagrams.net" modified="2023-08-10T07:05:17.094Z" agent="Mozilla/5.0 (Macintosh; Intel Mac OS X 10_15_7) AppleWebKit/605.1.15 (KHTML, like Gecko) Version/16.6 Safari/605.1.15" etag="wI74JmDhvAOjMpT0hTzX" version="21.6.7" type="github">
  <diagram name="PÃ¡gina-1" id="fEbN7JVaxCm0Wh4aAcM7">
    <mxGraphModel dx="1702" dy="961" grid="1" gridSize="10" guides="1" tooltips="1" connect="1" arrows="1" fold="1" page="1" pageScale="1" pageWidth="827" pageHeight="1169" math="0" shadow="0">
      <root>
        <mxCell id="0" />
        <mxCell id="1" parent="0" />
        <mxCell id="IkVMxnJaaJ7MoMAmjsA5-3" value="" style="group;fontSize=14;" vertex="1" connectable="0" parent="1">
          <mxGeometry x="67.5" y="330" width="182.5" height="150" as="geometry" />
        </mxCell>
        <mxCell id="IkVMxnJaaJ7MoMAmjsA5-5" value="" style="group;fontSize=14;" vertex="1" connectable="0" parent="IkVMxnJaaJ7MoMAmjsA5-3">
          <mxGeometry width="182.49999999999997" height="150" as="geometry" />
        </mxCell>
        <mxCell id="IkVMxnJaaJ7MoMAmjsA5-1" value="Subcatwgoria" style="rounded=0;whiteSpace=wrap;html=1;fillColor=#dae8fc;strokeColor=#6c8ebf;verticalAlign=top;container=1;fontSize=14;" vertex="1" parent="IkVMxnJaaJ7MoMAmjsA5-5">
          <mxGeometry width="182.49999999999997" height="150" as="geometry" />
        </mxCell>
        <mxCell id="IkVMxnJaaJ7MoMAmjsA5-2" value="(PK) id_subcategoria&lt;br style=&quot;font-size: 14px;&quot;&gt;&lt;br style=&quot;font-size: 14px;&quot;&gt;&lt;span style=&quot;white-space: pre; font-size: 14px;&quot;&gt;(FK) id_categoria&lt;br style=&quot;font-size: 14px;&quot;&gt;&lt;/span&gt;&lt;span style=&quot;white-space: pre; font-size: 14px;&quot;&gt;&#x9;nombre_subcategoria&lt;/span&gt;" style="rounded=0;whiteSpace=wrap;html=1;fillColor=#d5e8d4;strokeColor=#82b366;align=left;verticalAlign=top;fontSize=14;" vertex="1" parent="IkVMxnJaaJ7MoMAmjsA5-5">
          <mxGeometry y="46.153846153846146" width="182.49999999999997" height="103.84615384615384" as="geometry" />
        </mxCell>
        <mxCell id="IkVMxnJaaJ7MoMAmjsA5-8" value="" style="group;fontSize=14;" vertex="1" connectable="0" parent="1">
          <mxGeometry x="70" y="105" width="160" height="125" as="geometry" />
        </mxCell>
        <mxCell id="IkVMxnJaaJ7MoMAmjsA5-6" value="Categoria" style="rounded=0;whiteSpace=wrap;html=1;fillColor=#dae8fc;strokeColor=#6c8ebf;verticalAlign=top;fontSize=14;" vertex="1" parent="IkVMxnJaaJ7MoMAmjsA5-8">
          <mxGeometry width="160.00000000000003" height="100.00000000000001" as="geometry" />
        </mxCell>
        <mxCell id="IkVMxnJaaJ7MoMAmjsA5-7" value="(PK) id_categoria&lt;br style=&quot;font-size: 14px;&quot;&gt;&lt;span style=&quot;white-space: pre; font-size: 14px;&quot;&gt;&#x9;&lt;br style=&quot;font-size: 14px;&quot;&gt;&lt;/span&gt;&lt;span style=&quot;white-space: pre; font-size: 14px;&quot;&gt;&#x9;nombre_categoria&lt;/span&gt;" style="rounded=0;whiteSpace=wrap;html=1;fillColor=#d5e8d4;strokeColor=#82b366;align=left;verticalAlign=top;fontSize=14;" vertex="1" parent="IkVMxnJaaJ7MoMAmjsA5-8">
          <mxGeometry y="37.5" width="160.00000000000003" height="87.50000000000001" as="geometry" />
        </mxCell>
        <mxCell id="IkVMxnJaaJ7MoMAmjsA5-10" value="" style="edgeStyle=orthogonalEdgeStyle;rounded=0;orthogonalLoop=1;jettySize=auto;html=1;fontSize=14;" edge="1" parent="1" source="IkVMxnJaaJ7MoMAmjsA5-1" target="IkVMxnJaaJ7MoMAmjsA5-7">
          <mxGeometry relative="1" as="geometry" />
        </mxCell>
        <mxCell id="IkVMxnJaaJ7MoMAmjsA5-13" value="" style="group;fontSize=14;" vertex="1" connectable="0" parent="1">
          <mxGeometry x="310" y="95" width="160" height="145" as="geometry" />
        </mxCell>
        <mxCell id="IkVMxnJaaJ7MoMAmjsA5-11" value="Producto" style="rounded=0;whiteSpace=wrap;html=1;fillColor=#dae8fc;strokeColor=#6c8ebf;align=center;verticalAlign=top;fontSize=14;" vertex="1" parent="IkVMxnJaaJ7MoMAmjsA5-13">
          <mxGeometry width="160" height="108.75" as="geometry" />
        </mxCell>
        <mxCell id="IkVMxnJaaJ7MoMAmjsA5-12" value="(PK) id_producto&lt;br style=&quot;font-size: 14px;&quot;&gt;&lt;br style=&quot;font-size: 14px;&quot;&gt;&lt;span style=&quot;white-space: pre; font-size: 14px;&quot;&gt;(FK) id_subcategoria&lt;br style=&quot;font-size: 14px;&quot;&gt;&lt;/span&gt;&lt;span style=&quot;white-space: pre; font-size: 14px;&quot;&gt;&#x9;nombre&lt;br style=&quot;font-size: 14px;&quot;&gt;&lt;/span&gt;&lt;span style=&quot;white-space: pre; font-size: 14px;&quot;&gt;&#x9;descripcion&lt;br style=&quot;font-size: 14px;&quot;&gt;&lt;/span&gt;&lt;span style=&quot;white-space: pre; font-size: 14px;&quot;&gt;&#x9;peso&lt;br style=&quot;font-size: 14px;&quot;&gt;&lt;br style=&quot;font-size: 14px;&quot;&gt;&lt;/span&gt;" style="rounded=0;whiteSpace=wrap;html=1;fillColor=#d5e8d4;strokeColor=#82b366;verticalAlign=top;align=left;fontSize=14;" vertex="1" parent="IkVMxnJaaJ7MoMAmjsA5-13">
          <mxGeometry y="41.08333333333333" width="160" height="114.79166666666666" as="geometry" />
        </mxCell>
        <mxCell id="IkVMxnJaaJ7MoMAmjsA5-14" value="" style="edgeStyle=orthogonalEdgeStyle;rounded=0;orthogonalLoop=1;jettySize=auto;html=1;fontSize=14;" edge="1" parent="1" source="IkVMxnJaaJ7MoMAmjsA5-7" target="IkVMxnJaaJ7MoMAmjsA5-12">
          <mxGeometry relative="1" as="geometry" />
        </mxCell>
        <mxCell id="IkVMxnJaaJ7MoMAmjsA5-21" value="" style="edgeStyle=orthogonalEdgeStyle;rounded=0;orthogonalLoop=1;jettySize=auto;html=1;fontSize=14;" edge="1" parent="1" source="IkVMxnJaaJ7MoMAmjsA5-12" target="IkVMxnJaaJ7MoMAmjsA5-15">
          <mxGeometry relative="1" as="geometry" />
        </mxCell>
        <mxCell id="IkVMxnJaaJ7MoMAmjsA5-22" value="" style="group;fontSize=14;" vertex="1" connectable="0" parent="1">
          <mxGeometry x="320" y="290" width="150" height="190" as="geometry" />
        </mxCell>
        <mxCell id="IkVMxnJaaJ7MoMAmjsA5-17" value="" style="group;fontSize=14;" vertex="1" connectable="0" parent="IkVMxnJaaJ7MoMAmjsA5-22">
          <mxGeometry width="150" height="190" as="geometry" />
        </mxCell>
        <mxCell id="IkVMxnJaaJ7MoMAmjsA5-16" value="(PK) id_venta&lt;br style=&quot;font-size: 14px;&quot;&gt;&lt;br style=&quot;font-size: 14px;&quot;&gt;(FK) id_producto&lt;br style=&quot;font-size: 14px;&quot;&gt;(FK) id_tienda&lt;br style=&quot;font-size: 14px;&quot;&gt;(FK) id_cliente&lt;br style=&quot;font-size: 14px;&quot;&gt;&lt;span style=&quot;white-space: pre; font-size: 14px;&quot;&gt;&#x9;cantidad&lt;br style=&quot;font-size: 14px;&quot;&gt;&lt;/span&gt;&lt;span style=&quot;white-space: pre; font-size: 14px;&quot;&gt;&#x9;subtotal&lt;br style=&quot;font-size: 14px;&quot;&gt;&lt;span style=&quot;white-space: pre; font-size: 14px;&quot;&gt;&#x9;descuento&lt;/span&gt;&lt;br style=&quot;font-size: 14px;&quot;&gt;&lt;/span&gt;&lt;span style=&quot;white-space: pre; font-size: 14px;&quot;&gt;&#x9;total&lt;/span&gt;" style="rounded=0;whiteSpace=wrap;html=1;align=left;verticalAlign=top;fillColor=#fff2cc;strokeColor=#d6b656;fontSize=14;" vertex="1" parent="IkVMxnJaaJ7MoMAmjsA5-17">
          <mxGeometry y="33.529411764705884" width="150" height="156.47058823529412" as="geometry" />
        </mxCell>
        <mxCell id="IkVMxnJaaJ7MoMAmjsA5-15" value="Ventas" style="rounded=0;whiteSpace=wrap;html=1;fillColor=#ffe6cc;strokeColor=#d79b00;align=center;verticalAlign=top;fontSize=14;" vertex="1" parent="IkVMxnJaaJ7MoMAmjsA5-22">
          <mxGeometry width="150" height="33.529411764705884" as="geometry" />
        </mxCell>
        <mxCell id="IkVMxnJaaJ7MoMAmjsA5-25" value="" style="group;fontSize=14;" vertex="1" connectable="0" parent="1">
          <mxGeometry x="540" y="560" width="155" height="115" as="geometry" />
        </mxCell>
        <mxCell id="IkVMxnJaaJ7MoMAmjsA5-26" value="" style="group;fontSize=14;" vertex="1" connectable="0" parent="IkVMxnJaaJ7MoMAmjsA5-25">
          <mxGeometry width="155" height="115" as="geometry" />
        </mxCell>
        <mxCell id="IkVMxnJaaJ7MoMAmjsA5-23" value="Direccion" style="rounded=0;whiteSpace=wrap;html=1;fillColor=#dae8fc;strokeColor=#6c8ebf;verticalAlign=top;fontSize=14;" vertex="1" parent="IkVMxnJaaJ7MoMAmjsA5-26">
          <mxGeometry y="-10" width="155" height="33.76" as="geometry" />
        </mxCell>
        <mxCell id="IkVMxnJaaJ7MoMAmjsA5-24" value="(PK) id_direccion&lt;br style=&quot;font-size: 14px;&quot;&gt;&lt;br style=&quot;font-size: 14px;&quot;&gt;&lt;span style=&quot;white-space: pre; font-size: 14px;&quot;&gt;(FK) id_colonia&lt;br style=&quot;font-size: 14px;&quot;&gt;&lt;/span&gt;&lt;span style=&quot;white-space: pre; font-size: 14px;&quot;&gt;&#x9;calle&lt;br style=&quot;font-size: 14px;&quot;&gt;&lt;/span&gt;&lt;span style=&quot;white-space: pre; font-size: 14px;&quot;&gt;&#x9;numero&lt;/span&gt;" style="rounded=0;whiteSpace=wrap;html=1;fillColor=#d5e8d4;strokeColor=#82b366;verticalAlign=top;align=left;fontSize=14;" vertex="1" parent="IkVMxnJaaJ7MoMAmjsA5-26">
          <mxGeometry y="22.44142857142857" width="155" height="92.55857142857143" as="geometry" />
        </mxCell>
        <mxCell id="IkVMxnJaaJ7MoMAmjsA5-30" value="" style="group;fontSize=14;" vertex="1" connectable="0" parent="1">
          <mxGeometry x="260" y="550" width="140" height="130" as="geometry" />
        </mxCell>
        <mxCell id="IkVMxnJaaJ7MoMAmjsA5-28" value="Tienda" style="rounded=0;whiteSpace=wrap;html=1;verticalAlign=top;fillColor=#dae8fc;strokeColor=#6c8ebf;fontSize=14;" vertex="1" parent="IkVMxnJaaJ7MoMAmjsA5-30">
          <mxGeometry width="140" height="32.5" as="geometry" />
        </mxCell>
        <mxCell id="IkVMxnJaaJ7MoMAmjsA5-29" value="(PK) id_tienda&lt;br style=&quot;font-size: 14px;&quot;&gt;&lt;br style=&quot;font-size: 14px;&quot;&gt;&lt;span style=&quot;white-space: pre; font-size: 14px;&quot;&gt;(FK) id_direccion&lt;br style=&quot;font-size: 14px;&quot;&gt;&lt;/span&gt;&lt;span style=&quot;white-space: pre; font-size: 14px;&quot;&gt;&#x9;nombre&lt;br style=&quot;font-size: 14px;&quot;&gt;&lt;/span&gt;&lt;span style=&quot;white-space: pre; font-size: 14px;&quot;&gt;&#x9;telefono&lt;/span&gt;" style="rounded=0;whiteSpace=wrap;html=1;fillColor=#d5e8d4;strokeColor=#82b366;verticalAlign=top;align=left;fontSize=14;" vertex="1" parent="IkVMxnJaaJ7MoMAmjsA5-30">
          <mxGeometry y="32.5" width="140" height="97.5" as="geometry" />
        </mxCell>
        <mxCell id="IkVMxnJaaJ7MoMAmjsA5-33" value="" style="edgeStyle=orthogonalEdgeStyle;rounded=0;orthogonalLoop=1;jettySize=auto;html=1;fontSize=14;" edge="1" parent="1" source="IkVMxnJaaJ7MoMAmjsA5-23" target="IkVMxnJaaJ7MoMAmjsA5-29">
          <mxGeometry relative="1" as="geometry" />
        </mxCell>
        <mxCell id="IkVMxnJaaJ7MoMAmjsA5-36" value="" style="group;fontSize=14;" vertex="1" connectable="0" parent="1">
          <mxGeometry x="590" y="170" width="160" height="190" as="geometry" />
        </mxCell>
        <mxCell id="IkVMxnJaaJ7MoMAmjsA5-34" value="Cliente" style="rounded=0;whiteSpace=wrap;html=1;verticalAlign=top;fillColor=#dae8fc;strokeColor=#6c8ebf;fontSize=14;" vertex="1" parent="IkVMxnJaaJ7MoMAmjsA5-36">
          <mxGeometry width="160" height="35.625" as="geometry" />
        </mxCell>
        <mxCell id="IkVMxnJaaJ7MoMAmjsA5-35" value="(PK) id_cliente&lt;br style=&quot;font-size: 14px;&quot;&gt;&lt;br style=&quot;font-size: 14px;&quot;&gt;&lt;span style=&quot;white-space: pre; font-size: 14px;&quot;&gt;(FK) id_direccion&lt;br style=&quot;font-size: 14px;&quot;&gt;&lt;span style=&quot;white-space: pre; font-size: 14px;&quot;&gt;&#x9;nombre&lt;br style=&quot;font-size: 14px;&quot;&gt;&lt;/span&gt;&lt;span style=&quot;white-space: pre; font-size: 14px;&quot;&gt;&#x9;apellido1&lt;br style=&quot;font-size: 14px;&quot;&gt;&lt;/span&gt;&lt;span style=&quot;white-space: pre; font-size: 14px;&quot;&gt;&#x9;apellido2&lt;br style=&quot;font-size: 14px;&quot;&gt;&lt;/span&gt;&lt;span style=&quot;white-space: pre; font-size: 14px;&quot;&gt;&#x9;email&lt;br style=&quot;font-size: 14px;&quot;&gt;&lt;/span&gt;&lt;span style=&quot;white-space: pre; font-size: 14px;&quot;&gt;&#x9;edad&lt;/span&gt;&lt;br style=&quot;font-size: 14px;&quot;&gt;&lt;/span&gt;" style="rounded=0;whiteSpace=wrap;html=1;fillColor=#d5e8d4;strokeColor=#82b366;verticalAlign=top;align=left;fontSize=14;" vertex="1" parent="IkVMxnJaaJ7MoMAmjsA5-36">
          <mxGeometry y="35.625" width="160" height="154.375" as="geometry" />
        </mxCell>
        <mxCell id="IkVMxnJaaJ7MoMAmjsA5-37" value="" style="edgeStyle=orthogonalEdgeStyle;rounded=0;orthogonalLoop=1;jettySize=auto;html=1;fontSize=14;" edge="1" parent="1" source="IkVMxnJaaJ7MoMAmjsA5-35" target="IkVMxnJaaJ7MoMAmjsA5-16">
          <mxGeometry relative="1" as="geometry" />
        </mxCell>
        <mxCell id="IkVMxnJaaJ7MoMAmjsA5-40" value="" style="edgeStyle=orthogonalEdgeStyle;rounded=0;orthogonalLoop=1;jettySize=auto;html=1;fontSize=14;" edge="1" parent="1" source="IkVMxnJaaJ7MoMAmjsA5-23" target="IkVMxnJaaJ7MoMAmjsA5-35">
          <mxGeometry relative="1" as="geometry" />
        </mxCell>
        <mxCell id="IkVMxnJaaJ7MoMAmjsA5-41" value="" style="edgeStyle=orthogonalEdgeStyle;rounded=0;orthogonalLoop=1;jettySize=auto;html=1;fontSize=14;" edge="1" parent="1" source="IkVMxnJaaJ7MoMAmjsA5-28" target="IkVMxnJaaJ7MoMAmjsA5-16">
          <mxGeometry relative="1" as="geometry" />
        </mxCell>
        <mxCell id="IkVMxnJaaJ7MoMAmjsA5-46" value="" style="group;fontSize=14;" vertex="1" connectable="0" parent="1">
          <mxGeometry x="557.5" y="760" width="152.5" height="120" as="geometry" />
        </mxCell>
        <mxCell id="IkVMxnJaaJ7MoMAmjsA5-43" value="Colonia" style="rounded=0;whiteSpace=wrap;html=1;verticalAlign=top;fillColor=#dae8fc;strokeColor=#6c8ebf;fontSize=14;" vertex="1" parent="IkVMxnJaaJ7MoMAmjsA5-46">
          <mxGeometry width="152.5" height="32.72727272727273" as="geometry" />
        </mxCell>
        <mxCell id="IkVMxnJaaJ7MoMAmjsA5-45" value="(PK) id_colonia&lt;br style=&quot;font-size: 14px;&quot;&gt;&lt;br style=&quot;font-size: 14px;&quot;&gt;(FK) id_municipio&lt;br style=&quot;font-size: 14px;&quot;&gt;&lt;span style=&quot;white-space: pre; font-size: 14px;&quot;&gt;&#x9;nombre_colonia&lt;/span&gt;" style="rounded=0;whiteSpace=wrap;html=1;fillColor=#d5e8d4;strokeColor=#82b366;verticalAlign=top;align=left;fontSize=14;" vertex="1" parent="IkVMxnJaaJ7MoMAmjsA5-46">
          <mxGeometry y="32.72727272727273" width="152.5" height="87.27272727272727" as="geometry" />
        </mxCell>
        <mxCell id="IkVMxnJaaJ7MoMAmjsA5-47" value="" style="edgeStyle=orthogonalEdgeStyle;rounded=0;orthogonalLoop=1;jettySize=auto;html=1;fontSize=14;" edge="1" parent="1" source="IkVMxnJaaJ7MoMAmjsA5-43" target="IkVMxnJaaJ7MoMAmjsA5-24">
          <mxGeometry relative="1" as="geometry" />
        </mxCell>
        <mxCell id="IkVMxnJaaJ7MoMAmjsA5-50" value="" style="group;fontSize=14;" vertex="1" connectable="0" parent="1">
          <mxGeometry x="320" y="760" width="160" height="120" as="geometry" />
        </mxCell>
        <mxCell id="IkVMxnJaaJ7MoMAmjsA5-48" value="Municipio_o_alcaldia" style="rounded=0;whiteSpace=wrap;html=1;verticalAlign=top;fillColor=#dae8fc;strokeColor=#6c8ebf;fontSize=14;" vertex="1" parent="IkVMxnJaaJ7MoMAmjsA5-50">
          <mxGeometry width="160" height="32.72727272727273" as="geometry" />
        </mxCell>
        <mxCell id="IkVMxnJaaJ7MoMAmjsA5-49" value="(PK) id_municipio&lt;br style=&quot;font-size: 14px;&quot;&gt;&lt;br style=&quot;font-size: 14px;&quot;&gt;&lt;span style=&quot;white-space: pre; font-size: 14px;&quot;&gt;(FK) id_pais&lt;br style=&quot;font-size: 14px;&quot;&gt;&lt;/span&gt;&lt;span style=&quot;white-space: pre; font-size: 14px;&quot;&gt;&#x9;nombre_municipio&lt;/span&gt;" style="rounded=0;whiteSpace=wrap;html=1;fillColor=#d5e8d4;strokeColor=#82b366;verticalAlign=top;align=left;fontSize=14;" vertex="1" parent="IkVMxnJaaJ7MoMAmjsA5-50">
          <mxGeometry y="32.72727272727273" width="160" height="87.27272727272727" as="geometry" />
        </mxCell>
        <mxCell id="IkVMxnJaaJ7MoMAmjsA5-51" value="" style="edgeStyle=orthogonalEdgeStyle;rounded=0;orthogonalLoop=1;jettySize=auto;html=1;fontSize=14;" edge="1" parent="1" source="IkVMxnJaaJ7MoMAmjsA5-49" target="IkVMxnJaaJ7MoMAmjsA5-45">
          <mxGeometry relative="1" as="geometry" />
        </mxCell>
        <mxCell id="IkVMxnJaaJ7MoMAmjsA5-54" value="" style="group;fontSize=14;" vertex="1" connectable="0" parent="1">
          <mxGeometry x="90" y="764" width="150" height="116" as="geometry" />
        </mxCell>
        <mxCell id="IkVMxnJaaJ7MoMAmjsA5-52" value="Pais" style="rounded=0;whiteSpace=wrap;html=1;fillColor=#dae8fc;strokeColor=#6c8ebf;verticalAlign=top;fontSize=14;" vertex="1" parent="IkVMxnJaaJ7MoMAmjsA5-54">
          <mxGeometry width="150" height="38.66666666666667" as="geometry" />
        </mxCell>
        <mxCell id="IkVMxnJaaJ7MoMAmjsA5-53" value="(PK) id_pais&lt;br style=&quot;font-size: 14px;&quot;&gt;&lt;span style=&quot;white-space: pre; font-size: 14px;&quot;&gt;&#x9;&lt;br style=&quot;font-size: 14px;&quot;&gt;&lt;/span&gt;&lt;span style=&quot;white-space: pre; font-size: 14px;&quot;&gt;&#x9;nombre_pais&lt;/span&gt;" style="rounded=0;whiteSpace=wrap;html=1;align=left;verticalAlign=top;fillColor=#d5e8d4;strokeColor=#82b366;fontSize=14;" vertex="1" parent="IkVMxnJaaJ7MoMAmjsA5-54">
          <mxGeometry y="38.66666666666667" width="150" height="77.33333333333334" as="geometry" />
        </mxCell>
        <mxCell id="IkVMxnJaaJ7MoMAmjsA5-55" value="" style="edgeStyle=orthogonalEdgeStyle;rounded=0;orthogonalLoop=1;jettySize=auto;html=1;fontSize=14;" edge="1" parent="1" source="IkVMxnJaaJ7MoMAmjsA5-53" target="IkVMxnJaaJ7MoMAmjsA5-49">
          <mxGeometry relative="1" as="geometry" />
        </mxCell>
      </root>
    </mxGraphModel>
  </diagram>
</mxfile>
